<svg xmlns="http://www.w3.org/2000/svg" xmlns:xlink="http://www.w3.org/1999/xlink" version="1.1" map-creation-datetime="2025-07-02 11:30:09" map-version="2.1" build-env="linux" data-path="site-6563/scan-20240117-144914" post-processing-commit="93d840b7" post-processing-branch="PP_RB59"><polyline stroke="yellow" id="lona_cs" points="1724,135 1092,2033"/><polygon stroke="green" fill="green" id="main_area_0" title="Working area 0" points="1812,154 1129,10 473,178 -472,-899 -1458,-1310 -2220,-1407 -3141,-1198 -3811,-1516 -4198,-1507 -4444,-1369 -4625,-729 -5236,-213 -6049,-306 -6241,-195 -7052,980 -7185,1833 -7049,2916 -7110,3483 -6391,4189 -6204,4817 -5513,5827 -5014,7310 -4916,8104 -5312,12769 -3036,14796 -2694,16526 -2174,16256 -932,14591 -1329,13794 -2996,12997 -4068,11983 -4134,10416 -4466,8426 -4135,7692 -3720,7615 -3351,7068 -2629,6619 -1615,6405 -1260,5978 -874,5763 232,5439 650,4893 943,4763 1680,4585 2436,4670 2760,4904 3130,5574 3347,5760 4090,6038 4414,6028 5951,5103 6859,4344 6712,3413 6403,2958 5658,3480 4526,3283 3808,2667 3819,2091 4048,1621 4072,1270 3911,985 3071,377 2448,421 1812,154"/><polygon stroke="red" fill="red" id="island_1" title="Island 1" points="-1800,14132 -1811,14266 -1880,14375 -2124,14508 -2503,14453 -2602,14238 -2512,13845 -2332,13684 -2089,13723 -1800,14132"/><polyline stroke="blue" id="guide_1" points="1724,135 1594,2218 1255,3415 633,4041 25,4296 -1444,5339 -2867,5850 -3516,6415 -4128,7076 -4342,7469 -4902,9922 -4814,11695 -4223,12908 -3601,13529 -1023,14714" stroke-width="500"/></svg>
